<?xml version="1.0" encoding="utf-8"?>
<!-- Generator: Adobe Illustrator 16.0.2, SVG Export Plug-In . SVG Version: 6.00 Build 0)  -->
<!DOCTYPE svg PUBLIC "-//W3C//DTD SVG 1.1//EN" "http://www.w3.org/Graphics/SVG/1.1/DTD/svg11.dtd">
<svg version="1.1" id="Layer_1" xmlns="http://www.w3.org/2000/svg" xmlns:xlink="http://www.w3.org/1999/xlink" x="0px" y="0px"
	 width="540.667px" height="372px" viewBox="0 0 540.667 372" enable-background="new 0 0 540.667 372" xml:space="preserve">
<g id="BACKGROUND" display="none">
	<g display="inline" opacity="0.34">
		<g>
			<g opacity="0.6">
				<path fill="#53D0F7" d="M620.847,291.593c4.787,21.138,3.979,40.498-2.41,61.201c-7.992,25.907-26.014,50.002-51.762,64.84
					c-9.037,5.207-18.736,9.122-28.842,11.906c-1.648,2.626-3.432,5.168-5.328,7.627h86.232
					c21.93-26.104,34.496-59.571,36.473-93.627c0.535-9.211,0.297-18.466-0.742-27.629c-4.021-35.513-19.764-69.347-43.395-96.188
					c-0.355,1.887-0.648,3.779-0.865,5.68C607.632,248.014,615.931,269.891,620.847,291.593z"/>
			</g>
			<g opacity="0.41">
				<path fill="#53D0F7" d="M353.867,431.908c-5.061-6.991-9.018-15.9-14.383-23.038c-11.492,2.338-22.842,5.747-34.316,8.688
					c-23.484,6.021-47.685,10.495-71.919,10.827c-26.931,0.369-54.394-4.822-77.817-18.659
					c-17.862-10.552-33.571-26.675-42.065-45.925c2.37,26.549,11.997,52.438,28.22,73.366h216.365
					C356.531,435.461,355.169,433.709,353.867,431.908z"/>
			</g>
			<g opacity="0.41">
				<path fill="#53D0F7" d="M387.984,67.675c6.543-0.222,13.578-0.614,21.256-1.195c35.826-2.712,71.313,5.451,105.723,16.723
					c3.32,1.087,6.621,2.258,9.9,3.507c-14.818-16.3-33.715-28.981-54.508-36.186c-41.152-14.259-91.059-8.59-127.307,13.864
					C357.945,64.425,372.935,65.549,387.984,67.675z"/>
			</g>
			<g opacity="0.35">
				<path fill="#53D0F7" d="M154.556,409.996c23.357,13.521,50.794,18.691,77.727,18.468c24.239-0.2,48.457-4.417,71.974-10.13
					c11.49-2.793,22.855-6.039,34.357-8.247c-4.697-6.117-10.496-10.907-19.119-11.933c-33.365-3.965-68.474,9.787-101.688,12.124
					c-22.317,1.564-46.025-1.456-64.063-14.802c-11.702-8.656-20.239-21.136-26.06-34.539c-12.076-27.818-12.4-59.74-2.199-88.181
					c6.903-19.239,23.676-33.864,29.543-53.475c4.9-16.38-0.779-33.472,0.823-50.025c0.326-3.376,0.956-6.729,2.04-10.049
					c5.744-17.597,33.336-43.021,50.246-51.516c40.527-20.359,82.819-30.263,125.952-31.274
					c-24.52-4.102-47.726-11.476-88.821-20.207C196.45,45.84,141.606,81.668,112.8,123.346c-2.938,4.25-5.521,8.714-7.748,13.337
					c-9.963,20.689-12.774,44.585-8.156,66.959c5.431,26.307,22.215,46.577,16.216,74.582c-3.654,17.06-4.627,32.871-6.521,49.758
					c-1.48,13.197,0.957,25.813,6.12,37.305C121.113,383.982,136.744,399.684,154.556,409.996z"/>
			</g>
			<g opacity="0.47">
				<path fill="#53D0F7" d="M409.24,66.48c-7.678,0.582-14.713,0.973-21.256,1.195c22.225,3.141,44.578,8.468,66.938,15.821
					c0.002,0.001,83.549,27.478,83.549,27.478c39.271,12.914,65.293,50.547,62.854,91.81c-0.021,0.271-0.033,0.542-0.059,0.813
					c-1.563,23.918-9.539,47.359-22.713,67.021c-11.93,17.801-28.393,37.711-32.514,59.562c-3.283,17.406,3.809,35.008,4.672,52.726
					c0.82,16.847-4.213,32.831-12.877,46.637c10.105-2.784,19.805-6.699,28.842-11.906c25.748-14.838,43.771-38.933,51.764-64.84
					c6.393-20.703,7.195-40.063,2.408-61.2c-4.916-21.701-13.215-43.578-10.639-66.191c0.217-1.897,0.516-3.791,0.865-5.678
					c2.549-13.756,7.979-27.191,6.816-41.093c-0.877-10.501-5.502-20.354-11.152-29.246c-18.771-29.521-49.053-50.168-81.875-62.677
					c-3.279-1.249-6.58-2.419-9.9-3.507C480.552,71.931,445.066,63.768,409.24,66.48z"/>
			</g>
			<g opacity="0.7">
				<path fill="#53D0F7" d="M157.512,150.882c-1.067,3.432-1.68,6.896-1.989,10.382c-1.52,17.092,4.245,34.706-0.574,51.632
					c-5.769,20.267-22.468,35.442-29.275,55.343c-10.059,29.399-9.575,62.345,2.64,90.993c5.888,13.808,14.487,26.639,26.232,35.513
					c18.104,13.68,41.827,16.681,64.137,14.945c33.203-2.583,68.238-16.958,101.623-13.037c8.629,1.014,14.451,5.928,19.182,12.217
					c5.363,7.138,9.322,16.047,14.381,23.038c1.303,1.801,2.666,3.553,4.078,5.259h174.563c1.896-2.459,3.686-5.001,5.328-7.627
					c8.664-13.806,13.697-29.79,12.877-46.636c-0.863-17.717-7.955-35.315-4.672-52.725c4.121-21.853,20.582-41.763,32.512-59.563
					c13.18-19.66,21.15-43.104,22.721-67.023c0.02-0.271,0.027-0.542,0.053-0.813c2.438-41.262-23.58-78.896-62.855-91.811
					c0,0-83.545-27.477-83.549-27.478c-22.354-7.353-44.711-12.68-66.938-15.821c-15.051-2.126-30.039-3.25-44.936-3.288
					c-3.256-0.008-6.506,0.046-9.754,0.142c-43.127,1.267-85.373,11.706-125.795,32.927
					C190.633,106.31,163.168,132.691,157.512,150.882z"/>
			</g>
			<g opacity="0.35">
				<circle fill="#53D0F7" cx="311.796" cy="42.721" r="13.583"/>
			</g>
			<g opacity="0.35">
				<circle fill="#53D0F7" cx="678.943" cy="204.285" r="30.676"/>
			</g>
			<g opacity="0.35">
				<circle fill="#53D0F7" cx="64.06" cy="263.062" r="30.676"/>
			</g>
			<g opacity="0.35">
				<circle fill="#53D0F7" cx="551.441" cy="71.362" r="9.319"/>
			</g>
		</g>
	</g>
	<path display="inline" fill="#233863" stroke="#233863" stroke-width="3" stroke-miterlimit="10" d="M663.544,433.347H86.455
		c-0.644,0-1.166-0.521-1.166-1.166v-0.438c0-0.646,0.522-1.166,1.166-1.166h577.089c0.646,0,1.166,0.521,1.166,1.166v0.438
		C664.71,432.825,664.187,433.347,663.544,433.347z"/>
</g>
<g id="DESIGNED_BY_FREEPIK">
</g>
<g>
	<g>
		<g>
			<g opacity="0.57">
				<g>
					<path fill="#3AAED5" d="M145.105,284.508c-0.553,0-1-0.447-1-1c0-34.222,14.322-67.281,39.297-90.701
						c4.416-4.142,9.176-7.994,14.146-11.449c0.453-0.313,1.076-0.202,1.393,0.251c0.314,0.453,0.203,1.076-0.252,1.392
						c-4.889,3.399-9.572,7.19-13.92,11.266c-24.572,23.043-38.664,55.57-38.664,89.242
						C146.105,284.061,145.658,284.508,145.105,284.508z"/>
					<path fill="#3AAED5" d="M391.74,284.508c-0.553,0-1-0.447-1-1c0-13.965-2.334-27.66-6.936-40.704
						c-0.184-0.521,0.09-1.092,0.609-1.276c0.523-0.179,1.092,0.091,1.277,0.61c4.678,13.259,7.049,27.178,7.049,41.37
						C392.74,284.061,392.292,284.508,391.74,284.508z"/>
					<path fill="#3AAED5" d="M382.082,236.585c-0.389,0-0.76-0.229-0.92-0.611c-9.615-22.776-25.715-41.917-46.561-55.353
						c-0.463-0.299-0.598-0.918-0.299-1.382c0.301-0.465,0.918-0.6,1.383-0.299c21.184,13.654,37.547,33.107,47.318,56.256
						c0.215,0.509-0.023,1.095-0.533,1.31C382.343,236.56,382.212,236.585,382.082,236.585z"/>
					<path fill="#3AAED5" d="M206.215,178.008c-0.344,0-0.678-0.177-0.865-0.495c-0.277-0.477-0.117-1.089,0.359-1.367
						c18.947-11.093,40.633-16.956,62.713-16.956c18.39,0,36.095,3.921,52.623,11.655c0.5,0.233,0.717,0.828,0.482,1.329
						c-0.234,0.499-0.83,0.715-1.33,0.481c-16.26-7.607-33.68-11.466-51.775-11.466c-21.725,0-43.061,5.769-61.703,16.681
						C206.561,177.964,206.387,178.008,206.215,178.008z"/>
					<path fill="#3AAED5" d="M123.154,284.508c-0.553,0-1-0.447-1-1c0-57.993,34.305-110.567,87.395-133.937
						c0.51-0.227,1.096,0.007,1.318,0.512c0.223,0.506-0.008,1.096-0.512,1.318c-52.365,23.051-86.201,74.906-86.201,132.106
						C124.154,284.061,123.707,284.508,123.154,284.508z"/>
					<path fill="#3AAED5" d="M413.691,284.508c-0.553,0-1-0.447-1-1c0-45.482-21.842-88.832-58.424-115.96
						c-0.443-0.329-0.537-0.955-0.209-1.398c0.33-0.443,0.957-0.535,1.4-0.208c17.975,13.329,32.875,30.864,43.092,50.709
						c10.709,20.803,16.141,43.297,16.141,66.857C414.691,284.061,414.244,284.508,413.691,284.508z"/>
					<path fill="#3AAED5" d="M346.207,161.798c-0.184,0-0.369-0.05-0.535-0.155c-2.957-1.88-6.023-3.673-9.111-5.331
						c-0.488-0.262-0.67-0.867-0.408-1.354c0.26-0.485,0.867-0.67,1.354-0.407c3.131,1.681,6.24,3.499,9.238,5.404
						c0.467,0.297,0.605,0.914,0.309,1.381C346.861,161.634,346.539,161.798,346.207,161.798z"/>
					<path fill="#3AAED5" d="M330.63,153.196c-0.143,0-0.289-0.031-0.428-0.097c-19.379-9.196-40.164-13.86-61.781-13.86
						c-15.807,0-31.346,2.541-46.184,7.551c-0.529,0.177-1.092-0.105-1.268-0.628s0.105-1.091,0.627-1.267
						c15.045-5.08,30.799-7.656,46.824-7.656c21.916,0,42.99,4.729,62.638,14.054c0.5,0.237,0.713,0.833,0.475,1.332
						C331.365,152.985,331.005,153.196,330.63,153.196z"/>
					<path fill="#3AAED5" d="M438.023,284.508c-0.553,0-1-0.447-1-1c0-18.565-2.998-36.811-8.912-54.229
						c-0.176-0.522,0.104-1.091,0.627-1.269c0.525-0.176,1.092,0.103,1.268,0.626c5.982,17.625,9.018,36.086,9.018,54.871
						C439.023,284.061,438.576,284.508,438.023,284.508z"/>
					<path fill="#3AAED5" d="M425.521,220.482c-0.393,0-0.768-0.234-0.926-0.622c-11.906-29.186-31.746-54.425-57.377-72.988
						c-0.447-0.324-0.547-0.949-0.223-1.396c0.322-0.447,0.947-0.549,1.396-0.224c25.932,18.783,46.008,44.321,58.055,73.853
						c0.209,0.512-0.037,1.096-0.547,1.304C425.775,220.459,425.648,220.482,425.521,220.482z"/>
					<path fill="#3AAED5" d="M358.08,140.517c-0.182,0-0.363-0.049-0.529-0.152c-26.691-16.654-57.512-25.457-89.128-25.457
						c-14.25,0-28.408,1.781-42.078,5.293c-0.533,0.137-1.08-0.184-1.219-0.719c-0.137-0.535,0.186-1.08,0.721-1.219
						c13.834-3.553,28.158-5.355,42.576-5.355c31.992,0,63.179,8.908,90.187,25.76c0.469,0.293,0.611,0.91,0.32,1.379
						C358.74,140.349,358.414,140.517,358.08,140.517z"/>
					<path fill="#3AAED5" d="M193.85,132.14c-0.369,0-0.725-0.206-0.898-0.561c-0.242-0.496-0.039-1.095,0.457-1.338
						c5.215-2.557,10.615-4.867,16.051-6.869c0.518-0.191,1.094,0.073,1.285,0.592c0.189,0.52-0.074,1.094-0.594,1.285
						c-5.373,1.979-10.709,4.262-15.861,6.788C194.148,132.106,193.998,132.14,193.85,132.14z"/>
					<path fill="#3AAED5" d="M98.822,284.508c-0.553,0-1-0.447-1-1c0-30.294,8.043-60.049,23.258-86.048
						c14.768-25.233,35.902-46.393,61.119-61.191c0.477-0.279,1.09-0.12,1.369,0.355c0.279,0.477,0.119,1.09-0.357,1.369
						c-51.436,30.186-83.389,85.944-83.389,145.515C99.822,284.061,99.375,284.508,98.822,284.508z"/>
				</g>
			</g>
			<g opacity="0.22">
				<g>
					<path fill="#3AAED5" d="M80.924,276.067c-0.828,0-1.5-0.672-1.5-1.5c0-26.587,5.412-52.295,16.084-76.411
						c10.309-23.296,24.998-43.98,43.66-61.48c6.719-6.3,13.955-12.156,21.506-17.405c0.682-0.473,1.615-0.307,2.088,0.375
						c0.473,0.68,0.305,1.615-0.375,2.088c-7.434,5.166-14.555,10.93-21.166,17.131c-37.367,35.039-58.797,84.501-58.797,135.703
						C82.424,275.396,81.752,276.067,80.924,276.067z"/>
					<path fill="#3AAED5" d="M455.921,276.067c-0.828,0-1.5-0.672-1.5-1.5c0-21.233-3.549-42.059-10.547-61.896
						c-0.275-0.781,0.135-1.638,0.916-1.914c0.779-0.271,1.637,0.134,1.914,0.916c7.111,20.159,10.717,41.32,10.717,62.895
						C457.421,275.396,456.75,276.067,455.921,276.067z"/>
					<path fill="#3AAED5" d="M441.238,203.203c-0.586,0-1.141-0.344-1.383-0.917c-14.621-34.633-39.102-63.738-70.799-84.17
						c-0.695-0.448-0.896-1.377-0.447-2.072c0.449-0.698,1.381-0.896,2.072-0.449c32.207,20.76,57.082,50.334,71.938,85.525
						c0.322,0.763-0.035,1.643-0.799,1.965C441.628,203.165,441.431,203.203,441.238,203.203z"/>
					<path fill="#3AAED5" d="M173.836,114.14c-0.514,0-1.016-0.266-1.295-0.742c-0.418-0.715-0.178-1.634,0.537-2.053
						c28.807-16.863,61.777-25.776,95.344-25.776c27.958,0,54.875,5.962,80.003,17.719c0.75,0.351,1.074,1.243,0.723,1.994
						s-1.242,1.073-1.994,0.724c-24.727-11.57-51.217-17.437-78.732-17.437c-33.035,0-65.48,8.771-93.828,25.366
						C174.355,114.073,174.094,114.14,173.836,114.14z"/>
					<path fill="#3AAED5" d="M47.549,276.067c-0.828,0-1.5-0.672-1.5-1.5c0-88.168,52.154-168.096,132.867-203.626
						c0.762-0.333,1.645,0.011,1.979,0.769s-0.012,1.644-0.77,1.978C100.5,108.738,49.049,187.589,49.049,274.567
						C49.049,275.396,48.377,276.067,47.549,276.067z"/>
					<path fill="#3AAED5" d="M489.294,276.067c-0.828,0-1.5-0.672-1.5-1.5c0-69.162-33.209-135.078-88.838-176.327
						c-0.664-0.493-0.805-1.433-0.311-2.099s1.432-0.805,2.098-0.312c27.328,20.265,49.982,46.923,65.514,77.093
						c16.281,31.627,24.537,65.825,24.537,101.645C490.794,275.396,490.123,276.067,489.294,276.067z"/>
					<path fill="#3AAED5" d="M386.691,89.493c-0.275,0-0.553-0.074-0.803-0.233c-4.506-2.862-9.168-5.589-13.857-8.106
						c-0.73-0.392-1.004-1.301-0.611-2.031c0.393-0.729,1.303-1.002,2.029-0.611c4.754,2.551,9.48,5.315,14.049,8.217
						c0.699,0.444,0.904,1.371,0.461,2.07C387.673,89.247,387.187,89.493,386.691,89.493z"/>
					<path fill="#3AAED5" d="M363.009,76.415c-0.217,0-0.436-0.047-0.643-0.146c-29.467-13.985-61.074-21.075-93.945-21.075
						c-24.037,0-47.666,3.862-70.227,11.48c-0.785,0.266-1.637-0.156-1.9-0.941c-0.266-0.785,0.156-1.636,0.941-1.9
						c22.871-7.723,46.82-11.639,71.186-11.639c33.318,0,65.359,7.188,95.232,21.365c0.748,0.355,1.066,1.25,0.711,1.998
						C364.109,76.099,363.57,76.415,363.009,76.415z"/>
					<path fill="#3AAED5" d="M526.291,276.067c-0.828,0-1.5-0.672-1.5-1.5c0-28.233-4.559-55.977-13.547-82.458
						c-0.268-0.785,0.152-1.637,0.938-1.903c0.783-0.266,1.635,0.154,1.902,0.938c9.096,26.794,13.707,54.861,13.707,83.423
						C527.791,275.396,527.119,276.067,526.291,276.067z"/>
					<path fill="#3AAED5" d="M507.285,178.72c-0.592,0-1.152-0.352-1.389-0.934c-18.105-44.378-48.275-82.756-87.246-110.983
						c-0.67-0.485-0.82-1.424-0.334-2.095c0.484-0.672,1.424-0.82,2.094-0.335c39.426,28.558,69.945,67.383,88.264,112.28
						c0.313,0.767-0.055,1.643-0.822,1.955C507.666,178.685,507.474,178.72,507.285,178.72z"/>
					<path fill="#3AAED5" d="M404.742,57.136c-0.271,0-0.547-0.074-0.793-0.229C363.363,31.584,316.5,18.198,268.422,18.198
						c-21.668,0-43.195,2.708-63.984,8.049c-0.803,0.207-1.619-0.278-1.826-1.08c-0.205-0.803,0.277-1.619,1.08-1.826
						c21.031-5.402,42.811-8.143,64.73-8.143c48.64,0,96.052,13.543,137.115,39.164c0.703,0.439,0.916,1.364,0.479,2.066
						C405.73,56.886,405.242,57.136,404.742,57.136z"/>
					<path fill="#3AAED5" d="M155.039,44.399c-0.555,0-1.088-0.309-1.348-0.84c-0.365-0.744-0.059-1.643,0.686-2.008
						c7.92-3.883,16.131-7.397,24.402-10.444c0.777-0.285,1.641,0.112,1.926,0.89c0.287,0.777-0.111,1.639-0.889,1.926
						c-8.176,3.012-16.291,6.484-24.119,10.322C155.486,44.351,155.26,44.399,155.039,44.399z"/>
					<path fill="#3AAED5" d="M10.555,276.067c-0.828,0-1.5-0.672-1.5-1.5c0-46.058,12.227-91.295,35.359-130.82
						c22.453-38.363,54.584-70.533,92.922-93.031c0.713-0.418,1.633-0.182,2.053,0.533c0.418,0.715,0.18,1.635-0.535,2.053
						C60.641,99.202,12.055,183.985,12.055,274.567C12.055,275.396,11.383,276.067,10.555,276.067z"/>
				</g>
			</g>
		</g>
		<g>
			<path fill="#FFFFFF" d="M318.621,296.421c-1.145,0-2.285-0.244-3.359-0.731c-1.996-0.906-3.518-2.544-4.281-4.611l-2.445-6.625
				c-5.367,0.904-10.752,0.747-16.033-0.468l-2.939,6.481c-0.914,2.014-2.549,3.555-4.604,4.341
				c-2.057,0.786-4.293,0.723-6.291-0.184c-4.117-1.869-5.934-6.774-4.047-10.935l2.941-6.482
				c-4.395-3.174-8.06-7.122-10.912-11.755l-6.596,2.521c-2.061,0.788-4.293,0.723-6.291-0.184
				c-1.996-0.906-3.518-2.544-4.281-4.611c-1.572-4.26,0.598-9.043,4.838-10.664l6.613-2.529
				c-0.855-5.405-0.654-10.839,0.602-16.177l-6.396-2.9c-4.119-1.869-5.934-6.774-4.047-10.936c0.914-2.014,2.549-3.555,4.604-4.341
				c2.057-0.786,4.291-0.723,6.289,0.184l6.396,2.902c3.189-4.46,7.144-8.191,11.777-11.106l-2.453-6.641
				c-1.574-4.26,0.598-9.043,4.838-10.665c2.061-0.787,4.293-0.721,6.289,0.185c1.998,0.905,3.518,2.543,4.283,4.611l2.445,6.625
				c5.363-0.905,10.75-0.749,16.033,0.469l2.939-6.481c1.889-4.16,6.777-6.025,10.893-4.156c1.998,0.905,3.518,2.543,4.283,4.61
				c0.762,2.064,0.678,4.31-0.234,6.323l-2.941,6.481c4.393,3.173,8.059,7.121,10.912,11.756l6.596-2.521
				c2.059-0.788,4.291-0.723,6.289,0.184s3.52,2.544,4.283,4.611c1.572,4.259-0.598,9.043-4.838,10.663l-6.613,2.529
				c0.855,5.406,0.654,10.84-0.602,16.177l6.396,2.902c4.119,1.868,5.934,6.773,4.047,10.934c-1.889,4.161-6.775,6.027-10.893,4.156
				l-6.396-2.9c-3.191,4.46-7.146,8.19-11.777,11.105l2.453,6.642c1.572,4.259-0.598,9.043-4.838,10.664
				C320.599,296.239,319.609,296.421,318.621,296.421z M309.828,282.182l3.029,8.203c0.576,1.563,1.725,2.8,3.232,3.483
				c1.506,0.686,3.195,0.733,4.748,0.139c3.223-1.232,4.871-4.868,3.676-8.104l-3.021-8.187l0.707-0.427
				c4.928-2.972,9.082-6.89,12.348-11.646l0.475-0.691l7.916,3.59c3.111,1.415,6.811-0.006,8.246-3.161
				c1.432-3.156,0.061-6.874-3.053-8.286l-7.916-3.592l0.209-0.813c1.43-5.588,1.641-11.295,0.631-16.962l-0.145-0.814l8.15-3.116
				c3.221-1.232,4.871-4.867,3.676-8.103c-0.576-1.563-1.725-2.8-3.232-3.483c-1.506-0.685-3.193-0.73-4.748-0.138l-8.168,3.124
				l-0.43-0.729c-2.906-4.939-6.758-9.09-11.447-12.334l-0.686-0.475l3.627-7.995c0.695-1.531,0.758-3.237,0.18-4.804
				c-0.578-1.563-1.725-2.8-3.232-3.482c-3.113-1.416-6.813,0.005-8.246,3.161l-3.625,7.995l-0.811-0.204
				c-5.531-1.392-11.189-1.557-16.818-0.49l-0.832,0.157l-3.029-8.203c-0.578-1.563-1.725-2.8-3.232-3.483
				c-1.506-0.683-3.193-0.732-4.748-0.138c-3.223,1.232-4.873,4.867-3.676,8.104l3.021,8.186l-0.707,0.427
				c-4.93,2.972-9.084,6.891-12.347,11.647l-0.475,0.691l-7.916-3.591c-1.508-0.685-3.193-0.733-4.75-0.138
				c-1.559,0.597-2.801,1.768-3.494,3.299c-1.432,3.156-0.064,6.875,3.051,8.288l7.916,3.59l-0.209,0.813
				c-1.43,5.588-1.641,11.295-0.631,16.962l0.145,0.814l-8.15,3.116c-3.223,1.232-4.871,4.867-3.676,8.104
				c0.576,1.563,1.725,2.8,3.23,3.483c1.51,0.684,3.197,0.731,4.75,0.138l8.168-3.124l0.43,0.729
				c2.904,4.938,6.755,9.087,11.447,12.333l0.686,0.475l-3.627,7.996c-1.432,3.156-0.063,6.873,3.051,8.287
				c1.51,0.684,3.195,0.732,4.75,0.137c1.561-0.597,2.801-1.768,3.496-3.299l3.627-7.995l0.811,0.204
				c5.529,1.391,11.189,1.554,16.818,0.489L309.828,282.182z M301.75,273.715c-4.154,0-8.365-0.861-12.379-2.682
				c-7.383-3.351-13.004-9.407-15.828-17.055c-2.824-7.645-2.514-15.964,0.871-23.425c3.385-7.462,9.441-13.174,17.053-16.084
				c7.613-2.912,15.875-2.669,23.258,0.678c15.236,6.913,21.947,25.071,14.957,40.479l0,0
				C324.533,266.976,313.365,273.715,301.75,273.715z M302.312,214.449c-3.412,0-6.836,0.628-10.133,1.888
				c-7.115,2.722-12.779,8.063-15.943,15.043c-3.168,6.979-3.457,14.759-0.818,21.905c2.639,7.143,7.887,12.799,14.779,15.926
				c14.236,6.46,31.129-0.008,37.662-14.41c6.535-14.403,0.271-31.375-13.961-37.831
				C310.199,215.291,306.263,214.449,302.312,214.449z"/>
			<path fill="#FFFFFF" d="M219.871,281.762c-1.506,0-2.922-0.576-3.994-1.627c-1.096-1.073-1.701-2.512-1.709-4.051l-0.02-4.356
				c-3.363-0.654-6.518-1.908-9.4-3.737l-3.074,3.141c-1.082,1.103-2.521,1.724-4.057,1.748c-1.586,0.051-2.992-0.553-4.088-1.626
				c-1.094-1.072-1.701-2.511-1.709-4.052c-0.006-1.535,0.584-2.988,1.664-4.091l3.076-3.141c-1.887-2.843-3.207-5.971-3.93-9.319
				l-4.355,0.069c-1.516-0.006-2.992-0.554-4.088-1.626c-1.096-1.073-1.701-2.512-1.709-4.051c-0.014-3.169,2.553-5.789,5.721-5.841
				l4.373-0.07c0.691-3.377,1.982-6.553,3.848-9.461l-3.096-3.032c-1.094-1.073-1.701-2.512-1.709-4.053
				c-0.006-1.536,0.584-2.989,1.664-4.092s2.52-1.723,4.057-1.748c1.578-0.006,2.992,0.554,4.086,1.626l3.096,3.032
				c2.869-1.926,6.018-3.282,9.381-4.044l-0.02-4.373c-0.014-3.17,2.551-5.789,5.721-5.84c1.553-0.001,2.99,0.554,4.086,1.626
				s1.701,2.512,1.709,4.052l0.02,4.355c3.363,0.654,6.518,1.909,9.4,3.737l3.074-3.141v0.001c1.08-1.104,2.521-1.725,4.057-1.749
				c1.545-0.049,2.992,0.552,4.088,1.625c2.258,2.212,2.277,5.864,0.045,8.144l-3.076,3.141c1.889,2.845,3.207,5.973,3.93,9.32
				l4.355-0.07c1.568,0.013,2.994,0.554,4.088,1.626c1.096,1.072,1.701,2.512,1.709,4.052c0.016,3.169-2.551,5.789-5.721,5.84
				l-4.373,0.07c-0.691,3.378-1.982,6.554-3.848,9.462l3.096,3.031c2.258,2.213,2.277,5.866,0.045,8.145
				c-1.08,1.103-2.52,1.724-4.057,1.748c-1.531,0.039-2.99-0.552-4.086-1.626l-3.096-3.031c-2.869,1.925-6.018,3.282-9.381,4.043
				l0.021,4.373c0.014,3.17-2.553,5.789-5.721,5.84C219.934,281.761,219.902,281.762,219.871,281.762z M204.48,265.407l0.691,0.468
				c3.059,2.074,6.469,3.429,10.135,4.027l0.834,0.137l0.027,6.035c0.006,1.002,0.398,1.937,1.109,2.632
				c0.695,0.682,1.615,1.056,2.594,1.056c0.021,0,0.041-0.001,0.063-0.001c2.078-0.033,3.762-1.752,3.752-3.83l-0.029-6.016
				l0.813-0.159c3.66-0.717,7.061-2.183,10.105-4.356l0.682-0.487l4.283,4.195c0.711,0.696,1.648,1.092,2.656,1.055
				c1.006-0.016,1.949-0.424,2.658-1.147c1.461-1.491,1.455-3.876-0.016-5.316l-4.283-4.195l0.473-0.692
				c2.109-3.087,3.506-6.517,4.146-10.193l0.143-0.814l6.016-0.097c2.078-0.033,3.762-1.751,3.752-3.83
				c-0.006-1.002-0.398-1.938-1.109-2.634c-0.695-0.681-1.613-1.055-2.592-1.055c-0.021,0-0.043,0.001-0.063,0.001l-6.035,0.098
				l-0.152-0.832c-0.674-3.651-2.1-7.032-4.236-10.05l-0.482-0.682l4.234-4.324c1.461-1.491,1.455-3.876-0.016-5.314
				c-0.709-0.697-1.637-1.119-2.654-1.055c-1.006,0.016-1.951,0.424-2.66,1.147v0.001l-4.236,4.323l-0.691-0.468
				c-3.059-2.073-6.469-3.429-10.133-4.027l-0.836-0.137l-0.027-6.034c-0.006-1.002-0.398-1.938-1.109-2.634
				c-0.695-0.681-1.613-1.055-2.592-1.055c-0.021,0-0.043,0.001-0.063,0.001c-2.078,0.033-3.762,1.752-3.752,3.83l0.027,6.016
				l-0.813,0.159c-3.66,0.717-7.061,2.183-10.105,4.357l-0.682,0.487l-4.285-4.197c-0.709-0.695-1.648-1.074-2.654-1.054
				c-1.006,0.017-1.949,0.424-2.658,1.147c-0.711,0.725-1.098,1.677-1.094,2.684c0.004,1.002,0.398,1.937,1.109,2.632l4.285,4.197
				l-0.475,0.692c-2.109,3.088-3.506,6.518-4.146,10.192l-0.143,0.814l-6.016,0.097c-2.078,0.034-3.762,1.753-3.752,3.831
				c0.006,1.002,0.398,1.937,1.109,2.632c0.709,0.696,1.641,1.051,2.656,1.055l6.031-0.097l0.154,0.832
				c0.676,3.652,2.102,7.033,4.236,10.049l0.482,0.682l-4.234,4.324c-0.711,0.724-1.098,1.677-1.094,2.683
				c0.004,1.002,0.398,1.937,1.109,2.632c0.709,0.697,1.635,1.089,2.654,1.055c1.006-0.016,1.951-0.423,2.66-1.147L204.48,265.407z
				 M219.551,264.844c-5.322,0-10.322-2.033-14.113-5.746c-7.986-7.824-8.049-20.758-0.141-28.832
				c3.83-3.909,8.936-6.11,14.379-6.198c5.482-0.105,10.58,1.953,14.449,5.743c3.871,3.792,6.016,8.88,6.041,14.327
				c0.025,5.444-2.07,10.595-5.9,14.505s-8.936,6.111-14.379,6.198C219.775,264.843,219.662,264.844,219.551,264.844z
				 M220.012,226.064c-0.102,0-0.201,0.001-0.303,0.003c-4.914,0.079-9.525,2.067-12.982,5.599
				c-7.139,7.286-7.088,18.95,0.111,26.002c3.484,3.415,8.1,5.225,13.018,5.174c4.912-0.079,9.521-2.067,12.98-5.6h0.002
				c3.459-3.53,5.352-8.182,5.328-13.095c-0.021-4.909-1.955-9.493-5.441-12.907C229.313,227.896,224.807,226.064,220.012,226.064z"
				/>
			<path fill="#FFFFFF" d="M237.012,363.465c-0.811,0-1.631-0.139-2.432-0.432c-1.773-0.649-3.18-1.947-3.961-3.656
				c-0.783-1.71-0.844-3.624-0.176-5.392l2.047-5.401c-3.814-2.353-7.078-5.364-9.717-8.969l-5.299,2.422
				c-3.557,1.629-7.766,0.085-9.377-3.44c-0.783-1.709-0.844-3.623-0.174-5.39c0.668-1.763,1.984-3.167,3.705-3.954l5.297-2.422
				c-0.998-4.354-1.141-8.793-0.426-13.219l-5.424-1.984c-1.773-0.649-3.18-1.947-3.961-3.656c-0.783-1.71-0.844-3.624-0.176-5.392
				c1.379-3.636,5.471-5.507,9.123-4.171l5.441,1.991c2.406-3.815,5.473-7.086,9.131-9.74l-2.389-5.224
				c-0.781-1.71-0.844-3.624-0.174-5.391c0.668-1.762,1.984-3.166,3.707-3.953c3.557-1.63,7.766-0.086,9.377,3.439l2.391,5.226
				c4.4-1.03,8.879-1.211,13.338-0.534l2.055-5.418c1.377-3.638,5.471-5.503,9.121-4.172c1.775,0.649,3.181,1.949,3.962,3.658
				c0.783,1.71,0.844,3.623,0.176,5.39l-2.048,5.401c3.816,2.354,7.08,5.366,9.718,8.969l5.297-2.422
				c1.723-0.789,3.645-0.865,5.416-0.217c1.773,0.649,3.182,1.948,3.963,3.657c0.781,1.71,0.844,3.624,0.174,5.391
				c-0.668,1.762-1.984,3.166-3.707,3.953l-5.297,2.422c1,4.354,1.143,8.793,0.426,13.219l5.424,1.984
				c1.775,0.65,3.182,1.949,3.963,3.659s0.844,3.624,0.174,5.39c-1.377,3.636-5.469,5.503-9.121,4.171l-5.441-1.992
				c-2.406,3.815-5.473,7.086-9.131,9.74l2.389,5.225c0.781,1.709,0.844,3.623,0.174,5.39c-0.668,1.763-1.984,3.167-3.707,3.954
				c-1.724,0.788-3.646,0.864-5.416,0.217c-1.773-0.649-3.18-1.948-3.961-3.657l-2.391-5.226c-4.4,1.032-8.879,1.211-13.34,0.535
				l-2.053,5.418C242.627,361.701,239.895,363.465,237.012,363.465z M223.451,337.106l0.477,0.686
				c2.715,3.898,6.18,7.095,10.299,9.502l0.73,0.427l-2.643,6.974c-0.479,1.263-0.436,2.631,0.123,3.851
				c0.559,1.219,1.563,2.146,2.83,2.609c2.627,0.963,5.574-0.386,6.566-3.001l2.635-6.956l0.814,0.143
				c4.721,0.828,9.475,0.637,14.127-0.567l0.813-0.211l3.082,6.741c0.557,1.22,1.563,2.147,2.83,2.611
				c1.271,0.466,2.656,0.409,3.896-0.157c1.24-0.567,2.187-1.577,2.667-2.845c0.479-1.263,0.436-2.63-0.121-3.849l-3.082-6.741
				l0.689-0.477c3.953-2.73,7.207-6.2,9.671-10.313l0.424-0.71l6.986,2.557c2.625,0.964,5.572-0.386,6.563-3.001
				c0.48-1.263,0.436-2.63-0.121-3.85s-1.563-2.147-2.832-2.611l-7.002-2.563l0.154-0.832c0.873-4.69,0.723-9.403-0.449-14.007
				l-0.205-0.81l6.805-3.111c1.242-0.567,2.189-1.577,2.67-2.844c0.479-1.263,0.434-2.63-0.123-3.85
				c-0.559-1.22-1.563-2.147-2.832-2.611c-1.27-0.466-2.654-0.41-3.896,0.157l-6.807,3.113l-0.477-0.686
				c-2.715-3.897-6.18-7.095-10.3-9.503l-0.73-0.427l2.645-6.974c0.479-1.263,0.436-2.629-0.123-3.849
				c-0.557-1.22-1.563-2.147-2.832-2.611c-2.625-0.964-5.572,0.385-6.563,3.002l-2.639,6.955l-0.814-0.143
				c-4.721-0.83-9.475-0.636-14.125,0.567l-0.813,0.21l-3.082-6.74c-1.152-2.521-4.17-3.624-6.727-2.453
				c-1.242,0.567-2.189,1.577-2.67,2.844c-0.479,1.263-0.434,2.63,0.123,3.85l3.082,6.74l-0.689,0.477
				c-3.955,2.73-7.209,6.2-9.672,10.313l-0.424,0.71l-6.986-2.556c-2.627-0.963-5.574,0.383-6.564,3.001
				c-0.479,1.263-0.436,2.631,0.123,3.851c0.559,1.219,1.563,2.146,2.83,2.609l7.004,2.563l-0.154,0.832
				c-0.875,4.69-0.725,9.402,0.447,14.006l0.207,0.81l-6.807,3.111c-1.24,0.567-2.188,1.577-2.668,2.845
				c-0.479,1.263-0.436,2.63,0.123,3.849c1.152,2.522,4.172,3.62,6.727,2.454L223.451,337.106z M251.145,344.443
				c-9.75,0-19.053-5.514-23.328-14.862c-5.861-12.818-0.084-28.068,12.875-33.994c12.963-5.927,28.275-0.317,34.134,12.5
				c2.84,6.212,3.063,13.169,0.629,19.592c-2.432,6.417-7.228,11.532-13.503,14.401
				C258.443,343.684,254.764,344.443,251.145,344.443z M251.5,295.224c-3.34,0-6.736,0.701-9.977,2.182
				c-11.957,5.468-17.291,19.528-11.889,31.344c5.404,11.816,19.527,16.979,31.484,11.513l0,0c5.795-2.649,10.22-7.37,12.466-13.292
				c2.242-5.919,2.037-12.329-0.578-18.051C269.068,300.304,260.492,295.224,251.5,295.224z"/>
		</g>
		<g>
			<g>
				<g>
					<g>
						<path fill="#FF6166" d="M161.482,105.591l-29.234-6.941c-1.389-0.328-2.246-1.721-1.916-3.108l5.514-23.228
							c0.33-1.388,1.721-2.246,3.109-1.916l29.234,6.939c1.387,0.33,2.246,1.722,1.916,3.109l-5.514,23.228
							C164.262,105.062,162.871,105.919,161.482,105.591z"/>
						<path fill="#233863" d="M162.078,107.161c-0.311,0-0.625-0.037-0.941-0.111l0,0l-29.236-6.94
							c-2.189-0.52-3.549-2.724-3.029-4.915l5.516-23.229c0.52-2.188,2.729-3.548,4.914-3.028l29.236,6.94
							c2.189,0.52,3.547,2.725,3.029,4.914l-5.516,23.229C165.605,105.895,163.928,107.161,162.078,107.161z M161.828,104.131
							c0.588,0.138,1.166-0.224,1.303-0.804l5.516-23.228c0.139-0.581-0.223-1.165-0.803-1.304l-29.236-6.939
							c-0.578-0.143-1.166,0.223-1.303,0.804l-5.514,23.228c-0.139,0.58,0.223,1.165,0.803,1.303l29.236,6.94H161.828z"/>
					</g>
					<path fill="#FFFFFF" d="M147.842,93.482c-0.17,0-0.34-0.019-0.51-0.056c-0.619-0.135-1.148-0.504-1.49-1.038l-3.676-5.774
						c-0.443-0.699-0.238-1.626,0.461-2.07c0.697-0.443,1.625-0.24,2.07,0.46l3.33,5.233l12.41-8
						c0.693-0.449,1.623-0.249,2.072,0.449c0.449,0.695,0.248,1.624-0.447,2.072l-12.945,8.346
						C148.732,93.354,148.291,93.482,147.842,93.482z"/>
				</g>
			</g>
			<g>
				<g>
					<g>
						<path fill="#3AAED5" d="M413.439,107.78l-29.863,3.318c-1.418,0.158-2.695-0.863-2.852-2.281l-2.637-23.728
							c-0.158-1.417,0.863-2.694,2.281-2.852l29.863-3.319c1.418-0.157,2.693,0.864,2.852,2.281l2.637,23.728
							C415.878,106.346,414.857,107.622,413.439,107.78z"/>
						<path fill="#233863" d="M383.283,112.615c-0.922,0-1.811-0.311-2.543-0.896c-0.852-0.681-1.387-1.652-1.508-2.736
							l-2.637-23.729c-0.248-2.237,1.371-4.26,3.607-4.508l29.863-3.318c2.244-0.25,4.258,1.369,4.51,3.605l2.637,23.729
							c0.248,2.238-1.371,4.26-3.607,4.508l-29.863,3.318C383.587,112.606,383.435,112.615,383.283,112.615z M410.517,80.403
							c-0.039,0-0.08,0.002-0.119,0.007l-29.863,3.319c-0.594,0.065-1.023,0.602-0.957,1.195l2.637,23.727
							c0.031,0.287,0.174,0.545,0.4,0.727c0.225,0.18,0.51,0.26,0.795,0.23l29.863-3.319h0.002c0.592-0.065,1.021-0.603,0.955-1.195
							l-2.637-23.728C411.531,80.813,411.062,80.403,410.517,80.403z"/>
					</g>
					<path fill="#FFFFFF" d="M395.707,101.117c-0.521,0-1.025-0.172-1.445-0.497l-5.404-4.195c-0.654-0.509-0.771-1.451-0.264-2.105
						c0.506-0.654,1.449-0.773,2.104-0.266l4.9,3.805l8.986-11.712c0.506-0.657,1.445-0.782,2.104-0.276
						c0.658,0.504,0.781,1.445,0.277,2.103l-9.375,12.219c-0.385,0.503-0.945,0.825-1.574,0.906
						C395.912,101.11,395.81,101.117,395.707,101.117z"/>
				</g>
			</g>
			<circle fill="#3AAED5" cx="54.047" cy="129.489" r="8.162"/>
			<circle fill="#3AAED5" cx="267.956" cy="16.698" r="8.163"/>
			<circle fill="#3D85FD" cx="103.151" cy="127.654" r="3.101"/>
			<circle fill="#3D85FD" cx="460.133" cy="100.479" r="3.101"/>
			<circle fill="#3D85FD" cx="165.466" cy="38.928" r="3.101"/>
			<circle fill="#FF6166" cx="63.386" cy="185.473" r="3.101"/>
			<circle fill="#FF6166" cx="479.969" cy="212.172" r="3.101"/>
			<circle fill="#FF6166" cx="525.902" cy="250.678" r="5.711"/>
			<circle fill="#FF6166" cx="344.156" cy="66.405" r="6.754"/>
		</g>
	</g>
	<g>
		<g>
			<g>
				<g>
					<path fill="#FFFFFF" d="M173.285,335.542l-47.154-45.209c-0.51-0.488-0.527-1.297-0.039-1.806l61.209-63.845
						c0.488-0.509,1.297-0.525,1.807-0.038l47.156,45.21c0.508,0.488,0.525,1.297,0.037,1.806l-61.209,63.844
						C174.604,336.014,173.795,336.03,173.285,335.542z"/>
					<path fill="#233863" d="M174.168,337.397c-0.719,0-1.398-0.272-1.92-0.772l0,0l-47.156-45.209
						c-0.535-0.514-0.84-1.205-0.854-1.946c-0.016-0.742,0.258-1.445,0.771-1.981l61.209-63.844c1.061-1.107,2.82-1.142,3.928-0.082
						l47.154,45.209c1.105,1.062,1.143,2.822,0.082,3.928l-61.207,63.843c-0.514,0.535-1.205,0.84-1.947,0.854
						C174.209,337.397,174.189,337.397,174.168,337.397z M174.324,334.459h-0.002c0,0,0,0,0-0.001L174.324,334.459z M127.33,289.404
						l46.834,44.901l60.9-63.522l-46.834-44.901L127.33,289.404z"/>
				</g>
				<path fill="#FF6166" d="M222.34,271.309c-0.248,0-0.498-0.093-0.691-0.278l-17.754-17.021c-0.398-0.382-0.412-1.015-0.029-1.414
					c0.383-0.397,1.016-0.411,1.414-0.029l17.754,17.021c0.398,0.382,0.412,1.015,0.029,1.414
					C222.865,271.205,222.604,271.309,222.34,271.309z"/>
				<path fill="#233863" d="M213.418,283.024c-0.25,0-0.498-0.093-0.693-0.278l-35.506-34.042c-0.398-0.382-0.412-1.015-0.029-1.414
					c0.383-0.396,1.016-0.411,1.414-0.029l35.506,34.042c0.398,0.382,0.412,1.015,0.029,1.414
					C213.943,282.921,213.68,283.024,213.418,283.024z"/>
				<path fill="#233863" d="M201.844,295.097c-0.25,0-0.498-0.093-0.693-0.278l-35.506-34.042c-0.398-0.382-0.412-1.015-0.029-1.414
					c0.381-0.397,1.014-0.411,1.414-0.029l35.506,34.042c0.398,0.382,0.412,1.015,0.029,1.414
					C202.369,294.993,202.105,295.097,201.844,295.097z"/>
				<path fill="#233863" d="M190.951,306.459c-0.25,0-0.498-0.093-0.693-0.278l-35.508-34.042c-0.398-0.382-0.412-1.015-0.029-1.414
					c0.383-0.397,1.016-0.411,1.414-0.029l35.508,34.042c0.398,0.382,0.412,1.015,0.029,1.414
					C191.477,306.355,191.213,306.459,190.951,306.459z"/>
				<path fill="#233863" d="M179.377,318.531c-0.25,0-0.498-0.093-0.693-0.278l-35.508-34.042c-0.398-0.382-0.412-1.015-0.029-1.414
					c0.383-0.397,1.016-0.41,1.414-0.029l35.508,34.042c0.398,0.382,0.412,1.015,0.029,1.414
					C179.902,318.428,179.639,318.531,179.377,318.531z"/>
			</g>
			<g>
				<g>
					<path fill="#FFFFFF" d="M146.133,277.906l-60.475,24.705c-0.652,0.267-1.398-0.047-1.666-0.7l-33.447-81.876
						c-0.268-0.653,0.045-1.399,0.699-1.666l60.475-24.705c0.652-0.267,1.398,0.047,1.664,0.699l33.449,81.877
						C147.1,276.894,146.785,277.639,146.133,277.906z"/>
					<path fill="#233863" d="M85.176,304.208c-0.365,0-0.73-0.073-1.076-0.219c-0.684-0.287-1.215-0.823-1.496-1.51l-33.447-81.877
						c-0.281-0.686-0.277-1.441,0.01-2.126s0.824-1.216,1.512-1.496l60.473-24.705c1.422-0.577,3.043,0.104,3.621,1.521
						l33.449,81.877c0.578,1.417-0.104,3.041-1.52,3.621c0,0.001-0.002,0.001-0.002,0.001L86.225,304
						C85.887,304.139,85.531,304.208,85.176,304.208z M52.018,219.674l33.279,81.465l60.063-24.537l-33.281-81.465L52.018,219.674z
						 M146.133,277.906h0.01H146.133z M145.564,276.519h-0.002H145.564L145.564,276.519z"/>
				</g>
				<path fill="#233863" d="M103.15,224.732c-0.393,0-0.768-0.234-0.926-0.622c-0.209-0.511,0.037-1.095,0.549-1.304l10.398-4.249
					c0.506-0.21,1.094,0.036,1.305,0.548c0.209,0.511-0.037,1.095-0.549,1.304l-10.398,4.249
					C103.406,224.709,103.277,224.732,103.15,224.732z"/>
				<path fill="#233863" d="M74.34,254.568c-0.395,0-0.768-0.234-0.926-0.622c-0.209-0.511,0.035-1.095,0.547-1.304l45.535-18.603
					c0.508-0.211,1.096,0.035,1.305,0.548c0.209,0.511-0.037,1.095-0.549,1.304l-45.535,18.603
					C74.594,254.545,74.465,254.568,74.34,254.568z"/>
				<path fill="#FF6166" d="M106.078,253.894c-0.393,0-0.768-0.234-0.926-0.622c-0.209-0.511,0.037-1.095,0.549-1.304l18.1-7.394
					c0.51-0.211,1.094,0.036,1.303,0.548c0.209,0.511-0.035,1.095-0.547,1.304l-18.1,7.394
					C106.332,253.87,106.205,253.894,106.078,253.894z"/>
				<path fill="#FF6166" d="M78.643,265.103c-0.395,0-0.768-0.234-0.926-0.622c-0.209-0.511,0.035-1.095,0.547-1.304l11.08-4.526
					c0.506-0.21,1.094,0.036,1.303,0.548c0.209,0.511-0.035,1.095-0.547,1.304l-11.08,4.526
					C78.896,265.079,78.768,265.103,78.643,265.103z"/>
				<path fill="#233863" d="M82.217,277.385c-0.395,0-0.768-0.234-0.926-0.622c-0.209-0.511,0.035-1.095,0.547-1.304l28.047-11.458
					c0.508-0.21,1.096,0.035,1.305,0.548c0.209,0.511-0.037,1.095-0.549,1.304l-28.047,11.458
					C82.471,277.361,82.342,277.385,82.217,277.385z"/>
				<g>
					<path fill="#FF6166" d="M98.043,232.32l-24.18,10.477c-1.016,0.44-2.197-0.026-2.637-1.042l-11.238-25.94
						c-0.441-1.016,0.025-2.196,1.041-2.636l24.182-10.478c1.016-0.439,2.195,0.027,2.637,1.043l11.238,25.94
						C99.525,230.7,99.059,231.88,98.043,232.32z"/>
					<path fill="#233863" d="M73.066,243.964c-0.373,0-0.748-0.07-1.105-0.212c-0.746-0.295-1.332-0.863-1.652-1.6l-11.238-25.94
						c-0.318-0.736-0.332-1.553-0.037-2.299c0.295-0.747,0.863-1.333,1.6-1.652l24.18-10.477c1.52-0.657,3.293,0.041,3.951,1.563
						l11.24,25.94c0.318,0.736,0.332,1.553,0.037,2.299s-0.863,1.333-1.6,1.651c0,0.001,0,0.001,0,0.001L74.26,243.715
						C73.877,243.881,73.473,243.964,73.066,243.964z M86.006,203.537c-0.133,0-0.268,0.026-0.398,0.082l-24.18,10.478
						c-0.246,0.106-0.436,0.302-0.535,0.552c-0.098,0.249-0.094,0.522,0.012,0.769l11.24,25.94c0.107,0.246,0.303,0.436,0.553,0.534
						c0.248,0.1,0.52,0.093,0.768-0.012l24.182-10.478c0.246-0.106,0.436-0.303,0.533-0.552c0.1-0.249,0.096-0.522-0.012-0.769
						l-11.238-25.94C86.766,203.764,86.395,203.537,86.006,203.537z M98.043,232.32h0.01H98.043z"/>
				</g>
				<path fill="#233863" d="M72.254,218.579c-0.293,0-0.588-0.056-0.869-0.167c-0.588-0.232-1.051-0.68-1.301-1.26l-1.318-3.041
					c-0.109-0.254,0.006-0.548,0.26-0.658s0.547,0.007,0.658,0.26l1.318,3.042c0.145,0.335,0.41,0.593,0.75,0.727
					c0.342,0.136,0.711,0.128,1.043-0.017l0.223-0.096c0.533-0.231,0.779-0.854,0.549-1.387l-3.336-7.699
					c-0.238-0.551-0.881-0.803-1.434-0.566l-0.379,0.165c-0.586,0.253-0.855,0.937-0.602,1.522l0.082,0.188
					c0.109,0.254-0.006,0.548-0.258,0.658c-0.252,0.111-0.549-0.004-0.658-0.258l-0.084-0.19c-0.473-1.094,0.031-2.366,1.123-2.839
					l0.379-0.165c1.053-0.455,2.289,0.03,2.748,1.086l3.336,7.7c0.449,1.039-0.029,2.251-1.068,2.702l-0.223,0.096
					C72.893,218.514,72.572,218.579,72.254,218.579z"/>
				<circle fill="#FFFFFF" cx="84.923" cy="208.704" r="2.124"/>
			</g>
			<g>
				<g>
					<path fill="#FFFFFF" d="M203.289,212.254l-60.131,25.528c-0.65,0.275-1.4-0.027-1.676-0.677l-34.563-81.413
						c-0.275-0.648,0.027-1.398,0.678-1.675l60.131-25.528c0.65-0.275,1.4,0.027,1.676,0.678l34.563,81.412
						C204.242,211.229,203.939,211.979,203.289,212.254z"/>
					<path fill="#233863" d="M142.658,239.385c-0.352,0-0.703-0.067-1.039-0.203c-0.689-0.278-1.227-0.808-1.518-1.49
						l-34.563-81.413c-0.598-1.409,0.063-3.043,1.471-3.641l60.133-25.529c0.682-0.289,1.438-0.296,2.127-0.018
						c0.688,0.277,1.225,0.807,1.516,1.49l34.563,81.412c0.289,0.683,0.295,1.438,0.018,2.125c-0.277,0.688-0.807,1.227-1.49,1.517
						l-60.131,25.528C143.395,239.311,143.027,239.385,142.658,239.385z M108.389,155.312l34.389,81.003l59.721-25.354
						l-34.389-81.002L108.389,155.312z"/>
				</g>
				<path fill="#233863" d="M159.572,159.673c-0.389,0-0.758-0.229-0.92-0.61c-0.217-0.509,0.021-1.095,0.529-1.312l10.34-4.39
					c0.504-0.214,1.096,0.021,1.313,0.53c0.215,0.508-0.021,1.095-0.531,1.311l-10.34,4.391
					C159.836,159.646,159.703,159.673,159.572,159.673z"/>
				<path fill="#233863" d="M131.17,189.899c-0.389,0-0.758-0.229-0.92-0.61c-0.217-0.509,0.021-1.095,0.529-1.312l45.279-19.222
					c0.502-0.215,1.094,0.021,1.311,0.53c0.217,0.508-0.021,1.095-0.529,1.311l-45.279,19.223
					C131.434,189.873,131.301,189.899,131.17,189.899z"/>
				<path fill="#FF6166" d="M162.898,188.792c-0.389,0-0.76-0.229-0.922-0.61c-0.215-0.509,0.021-1.095,0.531-1.312l17.996-7.641
					c0.504-0.215,1.096,0.021,1.313,0.53c0.215,0.509-0.021,1.095-0.531,1.312l-17.996,7.641
					C163.162,188.766,163.029,188.792,162.898,188.792z"/>
				<path fill="#FF6166" d="M135.617,200.372c-0.389,0-0.76-0.229-0.922-0.609c-0.215-0.508,0.021-1.096,0.531-1.312l11.016-4.677
					c0.504-0.213,1.096,0.021,1.313,0.53c0.215,0.508-0.021,1.096-0.531,1.312l-11.016,4.677
					C135.881,200.347,135.748,200.372,135.617,200.372z"/>
				<path fill="#233863" d="M139.357,212.605c-0.389,0-0.758-0.229-0.92-0.609c-0.217-0.508,0.021-1.096,0.529-1.312l27.889-11.84
					c0.506-0.214,1.096,0.021,1.313,0.53c0.215,0.508-0.021,1.096-0.531,1.312l-27.889,11.84
					C139.621,212.58,139.488,212.605,139.357,212.605z"/>
			</g>
			<g>
				<g>
					<path fill="#3AAED5" d="M172.551,299.081l-64.586-9.799c-0.699-0.105-1.178-0.757-1.072-1.454l13.268-87.445
						c0.105-0.697,0.756-1.177,1.453-1.07l64.588,9.799c0.697,0.105,1.178,0.757,1.072,1.454l-13.268,87.445
						C173.9,298.708,173.248,299.188,172.551,299.081z"/>
					<path fill="#233863" d="M172.748,300.597c-0.139,0-0.281-0.01-0.422-0.031l0,0l-64.586-9.8c-0.734-0.111-1.381-0.501-1.82-1.1
						c-0.441-0.598-0.621-1.33-0.51-2.064l13.266-87.443c0.111-0.733,0.502-1.38,1.1-1.819c0.596-0.439,1.33-0.621,2.063-0.511
						l64.588,9.8c0.734,0.111,1.381,0.501,1.82,1.099s0.621,1.33,0.51,2.063l-13.268,87.445c-0.111,0.733-0.5,1.38-1.098,1.819
						C173.908,300.41,173.336,300.597,172.748,300.597z M108.41,287.833l64.146,9.732l13.199-87.005l-64.146-9.732L108.41,287.833z"
						/>
				</g>
				<path fill="#FFFFFF" d="M142.35,214.9c-0.051,0-0.102-0.004-0.152-0.012l-12.398-1.881c-0.545-0.082-0.92-0.592-0.838-1.139
					c0.084-0.546,0.594-0.925,1.139-0.838l12.398,1.881c0.547,0.082,0.922,0.592,0.838,1.139
					C143.262,214.546,142.836,214.9,142.35,214.9z"/>
				<path fill="#233863" d="M174.535,233.217c-0.049,0-0.1-0.004-0.15-0.012l-14.238-2.16c-0.545-0.082-0.92-0.592-0.838-1.139
					c0.084-0.546,0.59-0.923,1.139-0.838l14.238,2.16c0.545,0.082,0.92,0.592,0.838,1.139
					C175.447,232.862,175.021,233.217,174.535,233.217z"/>
				<path fill="#FFFFFF" d="M150.219,229.528c-0.049,0-0.1-0.004-0.15-0.012l-24.316-3.689c-0.547-0.082-0.922-0.592-0.838-1.139
					c0.082-0.546,0.588-0.924,1.139-0.838l24.316,3.689c0.545,0.082,0.92,0.592,0.838,1.139
					C151.131,229.174,150.705,229.528,150.219,229.528z"/>
				<path fill="#233863" d="M151.1,246.577c-0.051,0-0.102-0.004-0.152-0.012l-27.705-4.203c-0.545-0.082-0.92-0.592-0.838-1.139
					c0.084-0.546,0.592-0.923,1.139-0.838l27.705,4.203c0.547,0.082,0.922,0.592,0.838,1.139
					C152.012,246.223,151.586,246.577,151.1,246.577z"/>
				<path fill="#FFFFFF" d="M169.666,265.314c-0.049,0-0.1-0.004-0.15-0.012l-48.633-7.378c-0.547-0.082-0.922-0.592-0.838-1.139
					c0.082-0.546,0.59-0.922,1.139-0.838l48.633,7.378c0.545,0.082,0.92,0.592,0.838,1.139
					C170.578,264.96,170.152,265.314,169.666,265.314z"/>
				<path fill="#FFFFFF" d="M145.873,278.62c-0.051,0-0.1-0.004-0.152-0.012l-27.348-4.148c-0.545-0.082-0.92-0.592-0.838-1.139
					c0.082-0.546,0.582-0.921,1.139-0.838l27.348,4.148c0.547,0.082,0.922,0.592,0.838,1.139
					C146.785,278.266,146.359,278.62,145.873,278.62z"/>
			</g>
		</g>
	</g>
	<g>
		<g>
			<g>
				<path fill="#FFFFFF" d="M394.451,235.688l-49.402-35.607c-0.572-0.413-0.701-1.211-0.289-1.783l48.242-66.936
					c0.414-0.572,1.211-0.701,1.783-0.289l49.404,35.607c0.572,0.413,0.701,1.211,0.289,1.783l-48.244,66.936
					C395.822,235.972,395.023,236.101,394.451,235.688z"/>
				<path fill="#233863" d="M395.193,237.43c-0.578,0-1.141-0.18-1.619-0.524l0,0l-49.402-35.607
					c-1.242-0.896-1.523-2.635-0.629-3.877l48.244-66.936c0.434-0.602,1.074-0.998,1.807-1.117c0.729-0.117,1.465,0.054,2.068,0.488
					l49.404,35.607c1.24,0.896,1.523,2.635,0.631,3.877l-48.246,66.936c-0.434,0.602-1.076,0.999-1.809,1.117
					C395.492,237.418,395.341,237.43,395.193,237.43z M395.328,234.472L395.328,234.472
					C395.328,234.471,395.328,234.471,395.328,234.472L395.328,234.472z M346.105,198.994l49.043,35.348l47.982-66.573
					l-49.041-35.348L346.105,198.994z"/>
			</g>
			<g>
				<path fill="#3AAED5" d="M394.451,235.688l-49.402-35.607c-0.572-0.413-0.701-1.211-0.289-1.783l48.242-66.936
					c0.414-0.572,1.211-0.701,1.783-0.289l49.404,35.607c0.572,0.413,0.701,1.211,0.289,1.783l-48.244,66.936
					C395.822,235.972,395.023,236.101,394.451,235.688z"/>
				<path fill="#233863" d="M395.193,237.43c-0.578,0-1.141-0.18-1.619-0.524l0,0l-49.402-35.607
					c-1.242-0.896-1.523-2.635-0.629-3.877l48.244-66.936c0.434-0.602,1.074-0.998,1.807-1.117c0.729-0.117,1.465,0.054,2.068,0.488
					l49.404,35.607c1.24,0.896,1.523,2.635,0.631,3.877l-48.246,66.936c-0.434,0.602-1.076,0.999-1.809,1.117
					C395.492,237.418,395.341,237.43,395.193,237.43z M395.328,234.472L395.328,234.472
					C395.328,234.471,395.328,234.471,395.328,234.472L395.328,234.472z M346.105,198.994l49.043,35.348l47.982-66.573
					l-49.041-35.348L346.105,198.994z"/>
			</g>
			<path fill="#233863" d="M424.695,181.97c-0.203,0-0.408-0.061-0.584-0.188l-8.52-6.14c-0.447-0.322-0.549-0.947-0.227-1.396
				s0.947-0.552,1.396-0.227l8.52,6.14c0.447,0.322,0.549,0.947,0.227,1.396C425.312,181.826,425.005,181.97,424.695,181.97z"/>
			<path fill="#233863" d="M415.554,194.653c-0.203,0-0.408-0.062-0.584-0.188l-37.303-26.886c-0.447-0.322-0.549-0.947-0.227-1.396
				s0.947-0.552,1.396-0.227l37.303,26.885c0.447,0.323,0.549,0.948,0.227,1.396C416.171,194.509,415.865,194.653,415.554,194.653z"
				/>
			<path fill="#FF6166" d="M409.333,203.282c-0.201,0-0.406-0.062-0.584-0.188l-14.826-10.687c-0.447-0.323-0.549-0.948-0.227-1.396
				c0.322-0.447,0.947-0.549,1.396-0.227l14.826,10.687c0.449,0.323,0.549,0.948,0.227,1.396
				C409.951,203.138,409.644,203.282,409.333,203.282z"/>
			<path fill="#FF6166" d="M381.109,182.938c-0.203,0-0.408-0.062-0.584-0.189l-9.076-6.541c-0.447-0.322-0.549-0.947-0.227-1.396
				s0.947-0.552,1.396-0.227l9.076,6.541c0.447,0.323,0.549,0.948,0.227,1.396C381.726,182.794,381.419,182.938,381.109,182.938z"/>
			<path fill="#233863" d="M387.041,201.873c-0.201,0-0.406-0.062-0.584-0.188l-22.975-16.561c-0.449-0.322-0.549-0.947-0.227-1.395
				c0.322-0.449,0.947-0.552,1.396-0.227l22.975,16.559c0.449,0.323,0.549,0.948,0.227,1.396
				C387.658,201.729,387.351,201.873,387.041,201.873z"/>
		</g>
		<g>
			<g>
				<path fill="#FFFFFF" d="M399.335,227.628l-60.971-23.454c-0.658-0.253-0.988-0.992-0.734-1.651l31.754-82.549
					c0.254-0.658,0.992-0.986,1.652-0.732l60.971,23.453c0.658,0.254,0.986,0.992,0.732,1.651l-31.754,82.549
					C400.732,227.553,399.994,227.881,399.335,227.628z"/>
				<path fill="#233863" d="M399.791,229.213c-0.332,0-0.668-0.06-0.994-0.185l0,0l-60.971-23.454
					c-1.43-0.552-2.145-2.162-1.594-3.591l31.752-82.547c0.551-1.43,2.16-2.145,3.59-1.596l60.971,23.454
					c1.43,0.55,2.145,2.159,1.596,3.589l-31.754,82.549C401.96,228.535,400.906,229.213,399.791,229.213z M339.111,202.854
					l60.555,23.295l31.596-82.134l-60.557-23.294L339.111,202.854z"/>
			</g>
			<g>
				<path fill="#FFFFFF" d="M399.335,227.628l-60.971-23.454c-0.658-0.253-0.988-0.992-0.734-1.651l31.754-82.549
					c0.254-0.658,0.992-0.986,1.652-0.732l60.971,23.453c0.658,0.254,0.986,0.992,0.732,1.651l-31.754,82.549
					C400.732,227.553,399.994,227.881,399.335,227.628z"/>
				<path fill="#233863" d="M399.791,229.213c-0.332,0-0.668-0.06-0.994-0.185l0,0l-60.971-23.454
					c-1.43-0.552-2.145-2.162-1.594-3.591l31.752-82.547c0.551-1.43,2.16-2.145,3.59-1.596l60.971,23.454
					c1.43,0.55,2.145,2.159,1.596,3.589l-31.754,82.549C401.96,228.535,400.906,229.213,399.791,229.213z M339.111,202.854
					l60.555,23.295l31.596-82.134l-60.557-23.294L339.111,202.854z"/>
			</g>
			<path fill="#233863" d="M381.814,149.86c-0.119,0-0.24-0.021-0.359-0.066l-10.484-4.033c-0.516-0.199-0.773-0.777-0.574-1.293
				c0.197-0.516,0.777-0.772,1.293-0.574l10.484,4.033c0.516,0.199,0.773,0.777,0.574,1.293
				C382.595,149.616,382.216,149.86,381.814,149.86z"/>
			<path fill="#233863" d="M409.642,179.362c-0.119,0-0.242-0.021-0.359-0.067l-45.91-17.66c-0.516-0.198-0.773-0.776-0.574-1.292
				s0.775-0.773,1.293-0.574l45.91,17.66c0.514,0.198,0.771,0.777,0.574,1.292C410.421,179.118,410.042,179.362,409.642,179.362z"/>
			<path fill="#FF6166" d="M405.556,189.983c-0.119,0-0.242-0.022-0.359-0.068l-18.248-7.02c-0.516-0.197-0.773-0.776-0.574-1.291
				c0.197-0.516,0.775-0.773,1.293-0.574l18.248,7.02c0.514,0.197,0.771,0.776,0.574,1.291
				C406.335,189.739,405.957,189.983,405.556,189.983z"/>
			<path fill="#FF6166" d="M370.816,176.62c-0.119,0-0.24-0.022-0.359-0.068l-11.17-4.297c-0.514-0.197-0.771-0.776-0.574-1.291
				c0.199-0.517,0.775-0.773,1.293-0.574l11.17,4.297c0.516,0.197,0.773,0.776,0.574,1.291
				C371.597,176.376,371.218,176.62,370.816,176.62z"/>
			<path fill="#233863" d="M382.109,194.594c-0.119,0-0.24-0.021-0.359-0.066l-28.277-10.878c-0.516-0.199-0.773-0.777-0.574-1.293
				c0.199-0.515,0.775-0.773,1.293-0.574l28.277,10.878c0.516,0.198,0.773,0.777,0.574,1.293
				C382.89,194.351,382.511,194.594,382.109,194.594z"/>
		</g>
		<g>
			<g>
				<g>
					<g>
						<path fill="#FF6166" d="M286.712,191.433l-72.21-24.656c-0.826-0.281-1.268-1.18-0.984-2.006l33.676-98.632
							c0.283-0.826,1.182-1.267,2.006-0.985l72.21,24.655c0.826,0.282,1.268,1.181,0.984,2.007l-33.676,98.632
							C288.435,191.273,287.539,191.714,286.712,191.433z"/>
						<path fill="#233863" d="M287.22,193.017c-0.33,0-0.664-0.053-0.992-0.165l-72.21-24.655c-0.777-0.266-1.406-0.818-1.77-1.557
							c-0.363-0.739-0.416-1.575-0.15-2.354l33.676-98.633c0.268-0.778,0.82-1.406,1.559-1.77c0.738-0.361,1.574-0.416,2.354-0.149
							l72.208,24.655c0.779,0.266,1.406,0.818,1.77,1.557c0.363,0.739,0.416,1.575,0.15,2.354l-33.676,98.632
							C289.701,192.21,288.501,193.017,287.22,193.017z M248.697,66.57c-0.035,0-0.074,0.023-0.084,0.054l-33.676,98.631
							c-0.014,0.036,0.014,0.09,0.049,0.102l72.21,24.656l0,0c0.035,0.011,0.09-0.015,0.102-0.051l33.676-98.632
							c0.014-0.036-0.014-0.09-0.051-0.103l-72.207-24.654C248.709,66.571,248.703,66.57,248.697,66.57z"/>
					</g>
				</g>
			</g>
			<g>
				<g>
					<g>
						<path fill="#FFFFFF" d="M301.699,184.859l-76.058-6.092c-0.871-0.069-1.52-0.831-1.449-1.702l8.32-103.89
							c0.07-0.87,0.832-1.519,1.701-1.449l76.06,6.092c0.869,0.069,1.518,0.831,1.449,1.702L303.4,183.41
							C303.332,184.28,302.568,184.929,301.699,184.859z"/>
						<path fill="#233863" d="M301.83,186.364c-0.084,0-0.168-0.003-0.252-0.01l-76.058-6.092c-0.82-0.066-1.564-0.447-2.098-1.073
							c-0.535-0.626-0.793-1.424-0.727-2.244l8.32-103.89c0.137-1.693,1.627-2.959,3.318-2.824l76.058,6.092
							c1.693,0.136,2.959,1.623,2.824,3.316l-8.32,103.891c-0.066,0.82-0.447,1.565-1.074,2.1
							C303.259,186.108,302.56,186.364,301.83,186.364z M234.088,73.222c-0.043,0-0.078,0.032-0.082,0.074l-8.32,103.89
							c-0.002,0.039,0.037,0.084,0.074,0.087l76.058,6.092l0,0c0.047-0.01,0.084-0.036,0.088-0.073l8.32-103.891
							c0.004-0.044-0.029-0.083-0.074-0.087l-76.058-6.092C234.092,73.222,234.09,73.222,234.088,73.222z"/>
					</g>
					<g>
						<g>
							<line fill="#FFFFFF" x1="279.863" y1="92.781" x2="299.13" y2="94.325"/>
							<path fill="#FF6166" d="M299.13,95.325c-0.025,0-0.053-0.002-0.08-0.004l-19.268-1.543c-0.551-0.045-0.961-0.526-0.916-1.077
								c0.043-0.55,0.51-0.962,1.076-0.917l19.268,1.544c0.549,0.044,0.961,0.526,0.916,1.077
								C300.085,94.928,299.648,95.325,299.13,95.325z"/>
						</g>
						<g>
							<line fill="#FFFFFF" x1="279.371" y1="98.937" x2="298.636" y2="100.479"/>
							<path fill="#FF6166" d="M298.638,101.479c-0.025,0-0.053-0.001-0.08-0.004l-19.268-1.543
								c-0.551-0.044-0.961-0.525-0.918-1.076c0.045-0.551,0.521-0.964,1.078-0.917l19.268,1.544
								c0.549,0.043,0.961,0.525,0.916,1.076C299.593,101.083,299.156,101.479,298.638,101.479z"/>
						</g>
						<g>
							<line fill="#FFFFFF" x1="234.26" y1="165.118" x2="253.527" y2="166.661"/>
							<path fill="#FF6166" d="M253.529,167.661c-0.027,0-0.055-0.001-0.082-0.004l-19.268-1.543
								c-0.549-0.044-0.961-0.525-0.916-1.076c0.043-0.551,0.523-0.964,1.076-0.917l19.268,1.544
								c0.551,0.043,0.961,0.525,0.918,1.076C254.482,167.265,254.045,167.661,253.529,167.661z"/>
						</g>
						<g>
							<g>
								<line fill="#FFFFFF" x1="237.242" y1="131.81" x2="254.373" y2="133.181"/>
								<path fill="#233863" d="M254.373,134.181c-0.025,0-0.053,0-0.08-0.003l-17.131-1.372c-0.551-0.044-0.961-0.525-0.918-1.076
									c0.045-0.55,0.52-0.967,1.078-0.917l17.131,1.372c0.549,0.044,0.961,0.525,0.916,1.076
									C255.328,133.784,254.891,134.181,254.373,134.181z"/>
							</g>
							<g>
								<line fill="#FFFFFF" x1="235.412" y1="154.645" x2="264.873" y2="157.004"/>
								<path fill="#233863" d="M264.875,158.004c-0.027,0-0.055-0.001-0.082-0.003l-29.461-2.359
									c-0.549-0.045-0.961-0.526-0.916-1.076c0.045-0.551,0.518-0.969,1.076-0.918l29.461,2.359
									c0.551,0.045,0.961,0.526,0.918,1.076C265.828,157.606,265.391,158.004,264.875,158.004z"/>
							</g>
							<g>
								<line fill="#FFFFFF" x1="236.326" y1="143.227" x2="258.631" y2="145.013"/>
								<path fill="#233863" d="M258.631,146.013c-0.025,0-0.053,0-0.08-0.003l-22.305-1.786c-0.549-0.045-0.961-0.526-0.916-1.077
									c0.043-0.55,0.508-0.962,1.076-0.917l22.305,1.787c0.551,0.044,0.961,0.525,0.916,1.076
									C259.586,145.616,259.148,146.013,258.631,146.013z"/>
							</g>
							<g>
								<line fill="#FFFFFF" x1="237.994" y1="121.306" x2="295.673" y2="125.925"/>
								<path fill="#233863" d="M295.675,126.925c-0.027,0-0.055,0-0.082-0.003l-57.679-4.62c-0.551-0.044-0.961-0.525-0.918-1.076
									c0.045-0.551,0.512-0.971,1.078-0.917l57.679,4.62c0.551,0.044,0.961,0.525,0.918,1.076
									C296.628,126.528,296.191,126.925,295.675,126.925z"/>
							</g>
							<g>
								<line fill="#FFFFFF" x1="265.744" y1="145.493" x2="293.306" y2="147.7"/>
								<path fill="#233863" d="M293.306,148.7c-0.025,0-0.053,0-0.08-0.003l-27.562-2.208c-0.549-0.043-0.961-0.525-0.916-1.076
									c0.043-0.549,0.512-0.966,1.076-0.916l27.562,2.207c0.549,0.044,0.961,0.525,0.916,1.076
									C294.261,148.304,293.824,148.7,293.306,148.7z"/>
							</g>
							<g>
								<line fill="#FFFFFF" x1="260.768" y1="133.541" x2="296.113" y2="136.524"/>
								<path fill="#233863" d="M296.115,137.524c-0.029,0-0.057-0.001-0.086-0.004l-35.345-2.982
									c-0.551-0.047-0.959-0.531-0.912-1.081c0.047-0.551,0.535-0.951,1.08-0.913l35.345,2.984
									c0.551,0.046,0.959,0.529,0.912,1.08C297.066,137.13,296.628,137.524,296.115,137.524z"/>
							</g>
						</g>
					</g>
				</g>
				<g>
					<g>
						
							<path fill="none" stroke="#233863" stroke-width="3" stroke-linecap="round" stroke-linejoin="round" stroke-miterlimit="10" d="
							M257.137,79.431"/>
					</g>
				</g>
			</g>
		</g>
	</g>
</g>
</svg>
